#!OML:ASF H:\ManfredETheater\Project 1\Capture day 1\Session 1\subject.ASF
:FULLY-SPECIFIED
:DEGREES
76
root 2.75967 17.6866 10.0417 -77.0262 -26.0971 -174.48
lowerback 34.7298 3.50308 1.83502
upperback 7.3465 3.80597 -3.76852
thorax -9.12008 1.5544 -6.39661
lowerneck -8.09043 -3.47399 -0.968418
upperneck -3.91817 -5.27083 -10.7253
head -0.13939 -2.96682 -3.40715
rclavicle -5.64548e-014 -1.19271e-014
rhumerus 46.0351 -7.25386 -55.6084
rradius 88.9215
rwrist 11.3548
rhand -38.4584 4.66525
rfingers 7.12502
rthumb -11.4814 -25.0003
lclavicle -5.64548e-014 -1.19271e-014
lhumerus 87.8619 5.91183 63.9438
lradius 57.6086
lwrist -3.47692
lhand -36.9449 -3.68141
lfingers 7.12502
lthumb -10.0215 26.06
rfemur -28.1156 -17.7482 31.4898
rtibia 87.7568
rfoot 9.50563 4.93584
rtoes -32.4153
lfemur -80.5439 3.40445 -1.64868
ltibia 46.399
lfoot 9.14608 -5.99676
ltoes -12.643
77
root 2.69835 17.5909 9.51094 -75.2354 -26.4607 -175.593
lowerback 35.1027 3.10702 1.93811
upperback 7.19831 3.36507 -3.89121
thorax -9.46332 1.3491 -6.44528
lowerneck -8.02043 -3.38874 -1.26036
upperneck -3.84769 -5.11575 -10.7861
head -0.114927 -2.8816 -3.3705
rclavicle 5.40694e-014 3.65764e-014
rhumerus 46.4449 -7.52916 -54.4535
rradius 88.2671
rwrist 12.0433
rhand -38.2809 5.17755
rfingers 7.12502
rthumb -11.3102 -24.4975
lclavicle 5.40694e-014 3.65764e-014
lhumerus 88.8747 5.2864 63.5951
lradius 56.847
lwrist -3.87426
lhand -37.6474 -3.45547
lfingers 7.12502
lthumb -10.6992 26.2521
rfemur -27.3269 -17.1067 31.0336
rtibia 87.3452
rfoot 9.56223 3.23287
rtoes -29.8393
lfemur -80.3192 3.67604 -2.24607
ltibia 49.049
lfoot 9.59736 -8.42139
ltoes -13.0029
78
root 2.6359 17.4785 8.9827 -73.4195 -26.6911 -176.724
lowerback 35.4298 2.71092 2.01211
upperback 7.06232 2.91096 -4.03251
thorax -9.78074 1.13977 -6.48697
lowerneck -7.97441 -3.30694 -1.56298
upperneck -3.77667 -4.96445 -10.851
head -0.0866993 -2.79951 -3.3342
rclavicle -1.20066e-013 -2.06736e-014
rhumerus 46.7244 -7.75609 -53.2046
rradius 87.7337
rwrist 12.6283
rhand -38.0719 5.64597
rfingers 7.12502
rthumb -11.1086 -24.04
lclavicle -1.20066e-013 -2.06736e-014
lhumerus 89.6849 4.5966 63.1774
lradius 56.1478
lwrist -4.47749
lhand -39.1735 -3.50205
lfingers 7.12502
lthumb -12.171 26.1239
rfemur -26.6189 -16.6705 30.5519
rtibia 86.9043
rfoot 9.72671 1.33614
rtoes -26.7162
lfemur -80.0132 3.89324 -2.81317
ltibia 51.6339
lfoot 10.0686 -10.6785
ltoes -13.0595
79
root 2.5726 17.3494 8.45662 -71.5793 -26.8083 -177.858
lowerback 35.6983 2.32177 2.06365
upperback 6.94644 2.45391 -4.1909
thorax -10.0575 0.931645 -6.52724
lowerneck -7.99595 -3.22596 -1.84873
upperneck -3.6746 -4.80997 -10.9387
head -0.038046 -2.72007 -3.31133
rclavicle -7.15625e-015 -5.08889e-014
rhumerus 46.859 -7.94912 -51.8574
rradius 87.3409
rwrist 13.1697
rhand -37.8595 6.0716
rfingers 7.12502
rthumb -10.9038 -23.6253
lclavicle -7.15625e-015 -5.08889e-014
lhumerus 90.2309 3.82555 62.8258
lradius 55.6718
lwrist -5.53326
lhand -41.4884 -3.69499
lfingers 7.12502
lthumb -14.4022 25.7853
rfemur -25.9955 -16.431 30.0655
rtibia 86.4444
rfoot 10.0335 -0.726956
rtoes -22.9899
lfemur -79.619 4.0792 -3.3515
ltibia 54.1265
lfoot 10.4978 -12.5591
ltoes -13.1433
80
root 2.50715 17.2049 7.9334 -69.6501 -26.7752 -179.061
lowerback 35.8412 1.90831 2.13645
upperback 6.86285 1.96911 -4.37933
thorax -10.257 0.713765 -6.59244
lowerneck -8.07591 -3.14978 -2.10781
upperneck -3.53873 -4.65726 -11.0457
head 0.0301108 -2.64563 -3.30219
rclavicle 5.08889e-014 -5.08889e-014
rhumerus 46.8139 -8.1291 -50.3951
rradius 87.1153
rwrist 13.6926
rhand -37.7887 6.65197
rfingers 7.12502
rthumb -10.8355 -23.0485
lclavicle 5.08889e-014 -5.08889e-014
lhumerus 90.4026 2.91862 62.6814
lradius 55.6414
lwrist -7.17251
lhand -44.4541 -3.99228
lfingers 7.12502
lthumb -17.2583 25.2614
rfemur -25.5152 -16.4505 29.5517
rtibia 85.9971
rfoot 10.4184 -2.89453
rtoes -18.7342
lfemur -79.1955 4.18568 -3.91686
ltibia 56.5007
lfoot 10.8452 -13.9585
ltoes -13.2196
81
root 2.44083 17.0449 7.41083 -67.6991 -26.6244 -180.249
lowerback 35.903 1.51094 2.18766
upperback 6.80496 1.49072 -4.59596
thorax -10.4014 0.501424 -6.67391
lowerneck -8.2224 -3.07413 -2.34504
upperneck -3.34783 -4.4953 -11.1608
head 0.127121 -2.57132 -3.30239
rclavicle 1.145e-013 7.95139e-015
rhumerus 46.5606 -8.27879 -48.8238
rradius 87.1017
rwrist 14.2667
rhand -38.0399 7.33235
rfingers 7.12502
rthumb -11.0777 -22.3553
lclavicle 1.145e-013 7.95139e-015
lhumerus 90.1239 1.85717 62.82
lradius 56.1726
lwrist -9.37549
lhand -47.7384 -4.40584
lfingers 7.12502
lthumb -20.4171 24.5408
rfemur -25.1285 -16.6412 29.0218
rtibia 85.5595
rfoot 10.8591 -5.11178
rtoes -14.0188
lfemur -78.6866 4.29147 -4.49923
ltibia 58.7492
lfoot 11.0523 -14.8513
ltoes -13.3784
82
root 2.37531 16.87 6.88769 -65.7928 -26.4223 -181.359
lowerback 35.9148 1.16047 2.20493
upperback 6.78323 1.05049 -4.84659
thorax -10.4869 0.309415 -6.78545
lowerneck -8.45129 -2.99188 -2.52173
upperneck -3.09831 -4.31429 -11.2832
head 0.256998 -2.49292 -3.31898
rclavicle -1.82882e-014 4.29375e-014
rhumerus 46.0715 -8.34748 -47.147
rradius 87.3863
rwrist 14.6579
rhand -38.4803 7.89612
rfingers 7.12502
rthumb -11.5025 -21.7683
lclavicle -1.82882e-014 4.29375e-014
lhumerus 89.3796 0.665361 63.2239
lradius 57.3342
lwrist -11.9424
lhand -50.8862 -5.03226
lfingers 7.12502
lthumb -23.4395 23.5601
rfemur -24.7822 -16.9005 28.5172
rtibia 85.1354
rfoot 11.3124 -7.33905
rtoes -8.99686
lfemur -78.0376 4.47687 -5.04881
ltibia 60.8675
lfoot 11.1071 -15.2376
ltoes -13.5817
83
root 2.3121 16.6803 6.36309 -63.9739 -26.2133 -182.341
lowerback 35.9037 0.88691 2.16093
upperback 6.79878 0.67481 -5.14018
thorax -10.5191 0.150374 -6.93417
lowerneck -8.75602 -2.90768 -2.61289
upperneck -2.79484 -4.12346 -11.4094
head 0.416816 -2.41484 -3.35539
rclavicle -6.83819e-014 -2.54444e-014
rhumerus 45.3027 -8.29981 -45.3717
rradius 88.0881
rwrist 14.5108
rhand -39.0178 8.33723
rfingers 7.12502
rthumb -12.0208 -21.2975
lclavicle -6.83819e-014 -2.54444e-014
lhumerus 88.1805 -0.60353 63.7642
lradius 59.1582
lwrist -14.528
lhand -53.5072 -5.94622
lfingers 7.12502
lthumb -25.9515 22.3021
rfemur -24.4497 -17.1473 28.0555
rtibia 84.7315
rfoot 11.7231 -9.46833
rtoes -4.0695
lfemur -77.2165 4.80354 -5.53079
ltibia 62.8559
lfoot 10.9881 -15.2034
ltoes -13.8979
84
root 2.25233 16.4767 5.8365 -62.2437 -26.0132 -183.192
lowerback 35.8738 0.693169 2.03917
upperback 6.85041 0.36058 -5.48695
thorax -10.5009 0.0232851 -7.12197
lowerneck -9.10762 -2.82806 -2.62504
upperneck -2.4757 -3.93837 -11.5239
head 0.589374 -2.34211 -3.40407
rclavicle -8.74653e-014 4.45278e-014
rhumerus 44.2281 -8.07483 -43.5279
rradius 89.2366
rwrist 13.7696
rhand -39.5607 8.59176
rfingers 7.12502
rthumb -12.5443 -21.0117
lclavicle -8.74653e-014 4.45278e-014
lhumerus 86.636 -1.86553 64.2489
lradius 61.5251
lwrist -16.7637
lhand -55.4392 -7.25185
lfingers 7.12502
lthumb -27.8001 20.7119
rfemur -24.1365 -17.3496 27.6389
rtibia 84.3641
rfoot 12.0429 -11.3711
rtoes 0.276813
lfemur -76.2335 5.29546 -5.94005
ltibia 64.7093
lfoot 10.7798 -14.7999
ltoes -14.2014
85
root 2.19771 16.2606 5.30884 -60.595 -25.8498 -183.938
lowerback 35.8426 0.574396 1.84402
upperback 6.92896 0.105571 -5.88012
thorax -10.4485 -0.0734105 -7.344
lowerneck -9.45051 -2.76441 -2.59157
upperneck -2.17631 -3.78091 -11.6091
head 0.753365 -2.28189 -3.45126
rclavicle -2.38542e-014 -7.95139e-015
rhumerus 42.8121 -7.6059 -41.6259
rradius 90.8498
rwrist 12.3179
rhand -39.9399 8.69477
rfingers 7.12502
rthumb -12.9098 -20.8859
lclavicle -2.38542e-014 -7.95139e-015
lhumerus 84.8823 -3.04515 64.504
lradius 64.2268
lwrist -18.3906
lhand -56.5314 -9.00295
lfingers 7.12502
lthumb -28.844 18.7875
rfemur -23.8446 -17.4714 27.2981
rtibia 84.0615
rfoot 12.2052 -12.9598
rtoes 3.77159
lfemur -75.1094 5.95591 -6.23534
ltibia 66.4259
lfoot 10.5928 -14.1068
ltoes -14.2781
86
root 2.14893 16.0331 4.78087 -58.9959 -25.7095 -184.604
lowerback 35.7917 0.524577 1.55891
upperback 7.02959 -0.101586 -6.31494
thorax -10.3609 -0.144524 -7.58158
lowerneck -9.77064 -2.72597 -2.54571
upperneck -1.896 -3.66315 -11.662
head 0.906233 -2.23976 -3.48984
rclavicle 3.02153e-014 9.06458e-014
rhumerus 41.0525 -6.84742 -39.7104
rradius 92.8991
rwrist 10.1154
rhand -40.0532 8.80907
rfingers 7.12502
rthumb -13.0191 -20.7647
lclavicle 3.02153e-014 9.06458e-014
lhumerus 83.0971 -4.09506 64.3984
lradius 66.9937
lwrist -19.3203
lhand -56.8714 -10.8806
lfingers 7.12502
lthumb -29.1687 16.854
rfemur -23.611 -17.5241 27.026
rtibia 83.85
rfoot 12.2234 -14.0815
rtoes 5.92918
lfemur -73.8977 6.78706 -6.44138
ltibia 68.0058
lfoot 10.4842 -13.2052
ltoes -14.1243
87
root 2.10619 15.7963 4.25455 -57.3662 -25.5561 -185.289
lowerback 35.7 0.497092 1.22126
upperback 7.13849 -0.301439 -6.77565
thorax -10.2503 -0.210525 -7.82166
lowerneck -10.025 -2.70656 -2.53246
upperneck -1.63633 -3.57528 -11.7023
head 1.04042 -2.20953 -3.51679
rclavicle -3.33958e-014 8.26944e-014
rhumerus 38.9769 -5.77251 -37.8607
rradius 95.3055
rwrist 7.29504
rhand -39.7141 9.0581
rfingers 7.12502
rthumb -12.6921 -20.5362
lclavicle -3.33958e-014 8.26944e-014
lhumerus 81.4134 -5 63.866
lradius 69.5769
lwrist -19.6021
lhand -57.0893 -12.9792
lfingers 7.12502
lthumb -29.3767 14.7191
rfemur -23.497 -17.5798 26.8384
rtibia 83.7637
rfoot 12.0874 -14.6425
rtoes 6.64859
lfemur -72.6968 7.68904 -6.53856
ltibia 69.4572
lfoot 10.5363 -12.1074
ltoes -13.7132
88
root 2.06927 15.5508 3.73013 -55.688 -25.3317 -186.013
lowerback 35.5539 0.484551 0.807638
upperback 7.25024 -0.508262 -7.2458
thorax -10.1179 -0.278232 -8.02745
lowerneck -10.1895 -2.71401 -2.62792
upperneck -1.38683 -3.51997 -11.6991
head 1.15579 -2.19152 -3.50676
rclavicle -2.70347e-014 -3.18055e-015
rhumerus 36.6161 -4.38519 -36.1292
rradius 97.9588
rwrist 4.06977
rhand -38.7932 9.43924
rfingers 7.12502
rthumb -11.8042 -20.2081
lclavicle -2.70347e-014 -3.18055e-015
lhumerus 79.9305 -5.7831 62.9641
lradius 71.7521
lwrist -19.4626
lhand -57.4689 -15.4116
lfingers 7.12502
lthumb -29.7391 12.2226
rfemur -23.5146 -17.6806 26.6813
rtibia 83.8267
rfoot 11.7919 -14.5685
rtoes 6.04535
lfemur -71.5468 8.61043 -6.57442
ltibia 70.7914
lfoot 10.776 -10.8741
ltoes -12.8801
